<?xml version="1.0" encoding="UTF-8" standalone="no"?>
<!-- Created with Inkscape (http://www.inkscape.org/) -->

<svg
   width="210mm"
   height="297mm"
   viewBox="0 0 210 297"
   version="1.1"
   id="svg5"
   inkscape:version="1.2.2 (b0a8486541, 2022-12-01)"
   sodipodi:docname="acrylic.svg"
   xmlns:inkscape="http://www.inkscape.org/namespaces/inkscape"
   xmlns:sodipodi="http://sodipodi.sourceforge.net/DTD/sodipodi-0.dtd"
   xmlns="http://www.w3.org/2000/svg"
   xmlns:svg="http://www.w3.org/2000/svg">
  <sodipodi:namedview
     id="namedview7"
     pagecolor="#ffffff"
     bordercolor="#000000"
     borderopacity="0.25"
     inkscape:showpageshadow="2"
     inkscape:pageopacity="0.0"
     inkscape:pagecheckerboard="0"
     inkscape:deskcolor="#d1d1d1"
     inkscape:document-units="mm"
     showgrid="false"
     inkscape:zoom="0.914906"
     inkscape:cx="327.90254"
     inkscape:cy="562.35285"
     inkscape:window-width="3840"
     inkscape:window-height="2067"
     inkscape:window-x="0"
     inkscape:window-y="0"
     inkscape:window-maximized="1"
     inkscape:current-layer="layer1" />
  <defs
     id="defs2" />
  <g
     inkscape:label="圖層 1"
     inkscape:groupmode="layer"
     id="layer1">
    <rect
       style="fill:none;stroke:#0000ff;stroke-width:0.149922;stroke-dasharray:none"
       id="rect111"
       width="239.85008"
       height="366.85007"
       x="0.074961215"
       y="0.074961215"
       ry="9.9959135" />
    <circle
       style="fill:none;stroke:#0000ff;stroke-width:0.105357;stroke-dasharray:none"
       id="path1679"
       cx="21.5"
       cy="18.5"
       r="2.6973214" />
    <circle
       style="fill:none;stroke:#0000ff;stroke-width:0.105357;stroke-dasharray:none"
       id="path1679-7"
       cx="218.5"
       cy="18.5"
       r="2.6973214" />
    <circle
       style="fill:none;stroke:#0000ff;stroke-width:0.105357;stroke-dasharray:none"
       id="path1679-3"
       cx="21.5"
       cy="348.60001"
       r="2.6973214" />
    <circle
       style="fill:none;stroke:#0000ff;stroke-width:0.105357;stroke-dasharray:none"
       id="path1679-7-5"
       cx="218.50002"
       cy="348.60001"
       r="2.6973214" />
    <path
       id="path11964"
       style="fill:none;stroke:#0000ff;stroke-width:0.174398;stroke-dasharray:none"
       d="M 119.99991 37.749634 A 74.912804 74.912804 0 0 0 45.08717 112.66237 A 74.912804 74.912804 0 0 0 92.124093 182.17544 A 74.912804 74.912804 0 0 0 45.08717 251.68851 A 74.912804 74.912804 0 0 0 119.99991 326.60125 A 74.912804 74.912804 0 0 0 194.72765 256.63498 L 203.72038 256.63498 L 203.72038 246.74205 L 194.74315 246.74205 A 74.912804 74.912804 0 0 0 147.89537 182.16666 A 74.912804 74.912804 0 0 0 194.91265 112.66237 A 74.912804 74.912804 0 0 0 119.99991 37.749634 z " />
    <rect
       style="fill:none;stroke:#0000ff;stroke-width:0.13093;stroke-dasharray:none"
       id="rect12723"
       width="14.86907"
       height="14.86907"
       x="194.55846"
       y="336.57019" />
  </g>
</svg>
